<?xml version="1.0" encoding="UTF-8"?>
<svg id="Layer_1" xmlns="http://www.w3.org/2000/svg" version="1.1" viewBox="0 0 102.51 15.89">
  <!-- Generator: Adobe Illustrator 29.6.1, SVG Export Plug-In . SVG Version: 2.1.1 Build 9)  -->
  <defs>
    <style>
      .st0 {
        fill: #fff;
      }

      .st1 {
        fill: #6185f6;
      }
    </style>
  </defs>
  <g>
    <path d="M-51.44-99.15h-.99c-.85-1.54-3.03-1.08-3.15.71-.03.4.17,1.21-.48,1.18s-.41-.87-.45-1.29c-.17-2.07-3.41-2.14-3.31.45.15,3.6,4.74,5.01,6.83,2.1.28-.39.44-.79.61-1.24h.94c-.65,3.2-4.36,4.8-7.14,3.01s-2.91-5.81-.24-7.77,6.72-.47,7.38,2.85ZM-53.55-101c-1.35-1.27-3.66-1.29-4.99,0,.95-.14,1.92.29,2.48,1.06.59-.78,1.53-1.21,2.51-1.06Z"/>
    <path d="M-58.2-99.14c.93-.05,1,1.41.05,1.43s-.95-1.38-.05-1.43Z"/>
    <path d="M-53.97-99.14c.95-.05.99,1.41.05,1.43-.89.02-.96-1.38-.05-1.43Z"/>
    <path class="st0" d="M-53.55-101c-.98-.14-1.92.28-2.51,1.06-.56-.78-1.53-1.2-2.48-1.06,1.33-1.29,3.64-1.27,4.99,0Z"/>
  </g>
  <g>
    <path class="st1" d="M15.49,6.39h-1.69c-1.44-2.62-5.16-1.83-5.36,1.22-.04.67.28,2.06-.81,2s-.7-1.49-.76-2.19c-.29-3.52-5.8-3.64-5.62.76.25,6.13,8.05,8.52,11.62,3.56.48-.67.75-1.34,1.03-2.11h1.6c-1.11,5.44-7.41,8.16-12.14,5.12C-1.38,11.7-1.59,4.86,2.95,1.54s11.42-.79,12.54,4.85ZM11.92,3.24c-2.29-2.16-6.21-2.19-8.48,0,1.62-.23,3.27.49,4.22,1.81,1-1.33,2.6-2.05,4.26-1.81Z"/>
    <path class="st1" d="M4,6.4c1.59-.09,1.69,2.39.08,2.42s-1.62-2.34-.08-2.42Z"/>
    <path class="st1" d="M11.2,6.4c1.61-.09,1.68,2.39.08,2.42-1.51.03-1.64-2.34-.08-2.42Z"/>
  </g>
  <g>
    <path class="st1" d="M32.44,6.09c.49.53.73,1.23.73,2.11v5.6h-1.93v-5.62c0-.37-.08-.66-.25-.88-.17-.22-.39-.33-.67-.33h-.8c-.37,0-.68.13-.94.39-.26.26-.42.62-.5,1.06v5.36h-1.91v-5.56c0-.38-.08-.68-.25-.91-.17-.23-.39-.34-.67-.34h-.75c-.37,0-.69.17-.96.49s-.45.76-.53,1.28v5.05h-1.93V5.43h1.79v1.06c.21-.37.48-.66.8-.87.32-.21.65-.32.99-.32h.96c.42,0,.8.11,1.14.33s.6.52.79.91c.25-.39.54-.7.89-.91.35-.22.72-.33,1.11-.33h.96c.82,0,1.47.26,1.95.79Z"/>
    <path class="st1" d="M35.56,4.15c-.23-.23-.34-.52-.34-.88s.11-.65.34-.88.53-.34.91-.34.69.11.92.34c.23.23.35.52.35.88s-.12.65-.35.88c-.23.23-.54.34-.92.34s-.68-.11-.91-.34ZM35.51,5.43h1.93v8.36h-1.93V5.43Z"/>
    <path class="st1" d="M39.89,5.43h1.79v1.09c.25-.37.57-.67.97-.89.4-.22.8-.34,1.21-.34h1.04c.86,0,1.55.27,2.07.82.52.55.78,1.27.78,2.16v5.51h-1.93v-5.46c0-.4-.1-.73-.31-.98-.21-.25-.48-.38-.81-.38h-1.04c-.44,0-.83.17-1.17.49-.35.33-.57.75-.67,1.27v5.06h-1.93V5.43Z"/>
    <path class="st1" d="M51.1,13.55c-.52-.26-.92-.62-1.21-1.09s-.43-1.01-.43-1.63v-2.25c0-.65.14-1.22.43-1.72.29-.5.69-.88,1.21-1.16s1.12-.41,1.8-.41h1.34c1.02,0,1.83.3,2.45.89.61.59.92,1.38.92,2.36v1.68h-6.22v.6c0,.45.14.8.41,1.07.27.27.64.4,1.1.4h1.29c.45,0,.81-.11,1.08-.33.27-.22.41-.51.41-.86h1.9c0,.85-.31,1.53-.94,2.04s-1.45.77-2.46.77h-1.27c-.68,0-1.28-.13-1.8-.39ZM55.71,8.79v-.23c0-.49-.13-.89-.4-1.19-.27-.3-.62-.45-1.06-.45h-1.36c-.46,0-.83.16-1.11.48-.29.32-.43.73-.43,1.25v.15h4.36Z"/>
    <path class="st1" d="M59.34,5.43h1.79v1.14c.22-.35.54-.63.96-.85.42-.22.85-.33,1.3-.33h1.01v1.68h-1.01c-.64,0-1.15.2-1.54.59-.39.39-.59.9-.59,1.53v4.61h-1.93V5.43Z"/>
    <path class="st1" d="M67.82,12.79l-2.88-7.36h2.03l2.18,6.19h.02l2.2-6.19h2.03l-3.34,8.36h-.97c-.58,0-1-.33-1.26-1.01Z"/>
    <path class="st1" d="M74.73,13.29c-.52-.43-.78-1-.78-1.72v-.6c0-.7.27-1.27.81-1.69.54-.42,1.25-.64,2.14-.64h1.04c.31,0,.65.04,1.01.13.36.09.68.21.96.35v-1.04c0-.35-.11-.63-.33-.84-.22-.21-.51-.32-.87-.32h-1.41c-.37,0-.67.09-.89.26s-.33.4-.33.68h-1.88c0-.77.29-1.39.86-1.86.57-.47,1.32-.7,2.25-.7h1.41c.94,0,1.69.25,2.26.76.57.51.86,1.18.86,2.02v5.72h-1.79v-1.06c-.27.36-.6.65-1.01.86s-.8.33-1.19.33h-1.04c-.85,0-1.53-.22-2.05-.65ZM77.94,12.42c.45,0,.85-.13,1.21-.38.36-.25.61-.58.75-1v-.4c-.19-.16-.46-.28-.8-.38s-.71-.14-1.09-.14h-1.06c-.34,0-.61.08-.81.25-.21.17-.31.39-.31.65v.47c0,.28.11.5.32.67.21.17.49.25.84.25h.96Z"/>
    <path class="st1" d="M83.86,13.63c-.22-.22-.34-.52-.34-.89s.11-.65.34-.87c.22-.22.52-.33.89-.33s.65.11.87.33.33.51.33.87-.11.67-.33.89c-.22.22-.51.33-.87.33s-.67-.11-.89-.33Z"/>
    <path class="st1" d="M88.08,13.29c-.52-.43-.78-1-.78-1.72v-.6c0-.7.27-1.27.81-1.69.54-.42,1.25-.64,2.14-.64h1.04c.31,0,.65.04,1.01.13.36.09.68.21.96.35v-1.04c0-.35-.11-.63-.33-.84-.22-.21-.51-.32-.87-.32h-1.41c-.37,0-.67.09-.89.26s-.33.4-.33.68h-1.88c0-.77.29-1.39.86-1.86.57-.47,1.32-.7,2.25-.7h1.41c.94,0,1.69.25,2.26.76.57.51.86,1.18.86,2.02v5.72h-1.79v-1.06c-.27.36-.6.65-1.01.86s-.8.33-1.19.33h-1.04c-.85,0-1.53-.22-2.05-.65ZM91.29,12.42c.45,0,.85-.13,1.21-.38.36-.25.61-.58.75-1v-.4c-.19-.16-.46-.28-.8-.38s-.71-.14-1.09-.14h-1.06c-.34,0-.61.08-.81.25-.21.17-.31.39-.31.65v.47c0,.28.11.5.32.67.21.17.49.25.84.25h.96Z"/>
    <path class="st1" d="M97.55,4.15c-.23-.23-.34-.52-.34-.88s.11-.65.34-.88c.23-.23.53-.34.91-.34s.69.11.92.34c.24.23.35.52.35.88s-.12.65-.35.88c-.23.23-.54.34-.92.34s-.68-.11-.91-.34ZM97.51,5.43h1.93v8.36h-1.93V5.43Z"/>
  </g>
</svg>