<?xml version="1.0" encoding="UTF-8"?>
<svg id="Layer_1" xmlns="http://www.w3.org/2000/svg" version="1.1" viewBox="0 0 24 24">
  <!-- Generator: Adobe Illustrator 29.6.1, SVG Export Plug-In . SVG Version: 2.1.1 Build 9)  -->
  <defs>
    <style>
      .st0 {
        fill: #6185f6;
      }
    </style>
  </defs>
  <path class="st0" d="M1.06.58c.06-.01.11-.01.17,0l5.68,3.2c.72-.3,1.43-.6,2.18-.79,2.61-.64,5.42-.37,7.84.78.6-.28,1.17-.62,1.74-.94,1.16-.65,2.34-1.44,3.52-2.05.31-.16.8-.43.87.14.18,1.58-.37,3.59-.85,5.1-.1.3-.43.97-.4,1.24.02.17.45.64.57.82,2.59,3.86,2.1,9.31-1.87,12.03-1.82,1.25-5.15,2.39-7.3,3.02-.6.17-1.04.39-1.67.25-2.01-.44-5.79-1.86-7.57-2.9C-.64,17.8-1.28,12.15,1.61,7.9c.11-.16.46-.53.47-.68-.42-1.17-.84-2.35-1.08-3.58-.14-.74-.28-1.71-.25-2.46,0-.22.05-.55.31-.61ZM11.78,12.8c-.78-1.63-1.61-3.47-3.23-4.43-2.78-1.65-5.73.1-6.55,3-1.22,4.35,2.59,8.55,6.98,6.69.8.78,1.58,1.75,2.42,2.47.17.15.42.41.65.31l2.77-2.75c.17-.05.41.12.58.17,4.68,1.35,7.98-3.51,6.15-7.68-1.09-2.47-3.86-3.67-6.28-2.21-1.62.98-2.44,2.78-3.23,4.43h-.27Z"/>
  <path class="st0" d="M16.47,10.28c3.46-.47,3.93,4.97.7,5.31s-3.82-4.89-.7-5.31ZM16.26,11.73c-.93,0-.84,1.5.1,1.42.78-.07.78-1.42-.1-1.42Z"/>
  <path class="st0" d="M6.63,10.28c3.44-.46,3.88,4.94.7,5.31-3.43.4-3.83-4.89-.7-5.31ZM8.06,11.91c-.57-.57-1.51.2-1.01.94.57.86,1.7-.25,1.01-.94Z"/>
  <path class="st0" d="M11.79,19.13c-.15-.12-.64-1.01-.76-1.23-.1-.18-.7-1.42-.68-1.5l1.59-2.09,1.56,2.13c-.35.75-.68,1.53-1.13,2.23-.09.14-.29.5-.44.52-.06,0-.1-.02-.15-.05Z"/>
</svg>