<?xml version="1.0" encoding="UTF-8"?>
<svg id="Layer_1" xmlns="http://www.w3.org/2000/svg" version="1.1" viewBox="0 0 112.39 22.3">
  <!-- Generator: Adobe Illustrator 29.6.1, SVG Export Plug-In . SVG Version: 2.1.1 Build 9)  -->
  <defs>
    <style>
      .st0 {
        fill: #6185f6;
      }
    </style>
  </defs>
  <g>
    <path class="st0" d="M1.92.29c.05-.01.11-.01.16,0l5.39,3.04c.68-.28,1.36-.57,2.08-.75,2.48-.61,5.15-.35,7.45.74.57-.27,1.11-.59,1.66-.89,1.11-.62,2.23-1.37,3.34-1.95.29-.15.76-.41.82.14.17,1.51-.35,3.42-.81,4.85-.09.28-.4.92-.38,1.17.01.16.43.61.54.78,2.46,3.67,1.99,8.85-1.77,11.44-1.73,1.19-4.89,2.27-6.94,2.87-.57.16-.99.37-1.59.24-1.91-.42-5.5-1.77-7.19-2.75C.31,16.67-.3,11.29,2.44,7.25c.1-.15.44-.5.44-.65-.4-1.11-.8-2.23-1.02-3.4-.14-.71-.26-1.62-.24-2.34,0-.21.05-.53.29-.58ZM12.11,11.91c-.74-1.55-1.53-3.29-3.07-4.21-2.65-1.57-5.45.09-6.22,2.85-1.16,4.13,2.47,8.12,6.64,6.36.76.75,1.5,1.66,2.3,2.35.16.14.4.39.62.29l2.64-2.61c.16-.05.39.11.55.16,4.45,1.28,7.58-3.34,5.84-7.3-1.03-2.35-3.67-3.49-5.97-2.1-1.54.93-2.32,2.64-3.07,4.21h-.26Z"/>
    <path class="st0" d="M16.56,9.51c3.29-.45,3.73,4.72.67,5.05s-3.63-4.65-.67-5.05ZM16.37,10.89c-.88,0-.8,1.43.09,1.35.74-.07.74-1.35-.09-1.35Z"/>
    <path class="st0" d="M7.21,9.51c3.27-.44,3.69,4.69.67,5.05-3.26.38-3.64-4.64-.67-5.05ZM8.58,11.07c-.54-.54-1.43.19-.96.89.55.82,1.62-.24.96-.89Z"/>
    <path class="st0" d="M12.12,17.92c-.14-.12-.61-.96-.72-1.17-.09-.17-.66-1.35-.65-1.43l1.51-1.99,1.49,2.03c-.33.72-.64,1.45-1.07,2.12-.08.13-.27.48-.41.49-.05,0-.1-.01-.14-.05Z"/>
  </g>
  <g>
    <path class="st0" d="M41.81,9.01c.49.53.73,1.23.73,2.11v5.6h-1.93v-5.62c0-.37-.08-.66-.25-.88-.17-.22-.39-.33-.67-.33h-.8c-.37,0-.68.13-.94.39-.26.26-.42.62-.5,1.06v5.36h-1.91v-5.56c0-.38-.08-.68-.25-.91-.17-.23-.39-.34-.67-.34h-.75c-.37,0-.69.17-.96.49s-.45.76-.53,1.28v5.05h-1.93v-8.36h1.79v1.06c.21-.37.48-.66.8-.87.32-.21.65-.32.99-.32h.96c.42,0,.8.11,1.14.33s.6.52.79.91c.25-.39.54-.7.89-.91.35-.22.72-.33,1.11-.33h.96c.82,0,1.47.26,1.95.79Z"/>
    <path class="st0" d="M44.92,7.08c-.23-.23-.34-.52-.34-.88s.11-.65.34-.88.53-.34.91-.34.69.11.92.34c.23.23.35.52.35.88s-.12.65-.35.88c-.23.23-.54.34-.92.34s-.68-.11-.91-.34ZM44.88,8.36h1.93v8.36h-1.93v-8.36Z"/>
    <path class="st0" d="M49.26,8.36h1.79v1.09c.25-.37.57-.67.97-.89.4-.22.8-.34,1.21-.34h1.04c.86,0,1.55.27,2.07.82.52.55.78,1.27.78,2.16v5.51h-1.93v-5.46c0-.4-.1-.73-.31-.98-.21-.25-.48-.38-.81-.38h-1.04c-.44,0-.83.17-1.17.49-.35.33-.57.75-.67,1.27v5.06h-1.93v-8.36Z"/>
    <path class="st0" d="M60.46,16.47c-.52-.26-.92-.62-1.21-1.09s-.43-1.01-.43-1.63v-2.25c0-.65.14-1.22.43-1.72.29-.5.69-.88,1.21-1.16s1.12-.41,1.8-.41h1.34c1.02,0,1.83.3,2.45.89.61.59.92,1.38.92,2.36v1.68h-6.22v.6c0,.45.14.8.41,1.07.27.27.64.4,1.1.4h1.29c.45,0,.81-.11,1.08-.33.27-.22.41-.51.41-.86h1.9c0,.85-.31,1.53-.94,2.04s-1.45.77-2.46.77h-1.27c-.68,0-1.28-.13-1.8-.39ZM65.08,11.71v-.23c0-.49-.13-.89-.4-1.19-.27-.3-.62-.45-1.06-.45h-1.36c-.46,0-.83.16-1.11.48-.29.32-.43.73-.43,1.25v.15h4.36Z"/>
    <path class="st0" d="M68.7,8.36h1.79v1.14c.22-.35.54-.63.96-.85.42-.22.85-.33,1.3-.33h1.01v1.68h-1.01c-.64,0-1.15.2-1.54.59-.39.39-.59.9-.59,1.53v4.61h-1.93v-8.36Z"/>
    <path class="st0" d="M77.18,15.72l-2.88-7.36h2.03l2.18,6.19h.02l2.2-6.19h2.03l-3.34,8.36h-.97c-.58,0-1-.33-1.26-1.01Z"/>
    <path class="st0" d="M84.1,16.22c-.52-.43-.78-1-.78-1.72v-.6c0-.7.27-1.27.81-1.69.54-.42,1.25-.64,2.14-.64h1.04c.31,0,.65.04,1.01.13.36.09.68.21.96.35v-1.04c0-.35-.11-.63-.33-.84-.22-.21-.51-.32-.87-.32h-1.41c-.37,0-.67.09-.89.26s-.33.4-.33.68h-1.88c0-.77.29-1.39.86-1.86.57-.47,1.32-.7,2.25-.7h1.41c.94,0,1.69.25,2.26.76.57.51.86,1.18.86,2.02v5.72h-1.79v-1.06c-.27.36-.6.65-1.01.86s-.8.33-1.19.33h-1.04c-.85,0-1.53-.22-2.05-.65ZM87.31,15.35c.45,0,.85-.13,1.21-.38.36-.25.61-.58.75-1v-.4c-.19-.16-.46-.28-.8-.38s-.71-.14-1.09-.14h-1.06c-.34,0-.61.08-.81.25-.21.17-.31.39-.31.65v.47c0,.28.11.5.32.67.21.17.49.25.84.25h.96Z"/>
    <path class="st0" d="M93.23,16.56c-.22-.22-.34-.52-.34-.89s.11-.65.34-.87c.22-.22.52-.33.89-.33s.65.11.87.33.33.51.33.87-.11.67-.33.89c-.22.22-.51.33-.87.33s-.67-.11-.89-.33Z"/>
    <path class="st0" d="M97.44,16.22c-.52-.43-.78-1-.78-1.72v-.6c0-.7.27-1.27.81-1.69.54-.42,1.25-.64,2.14-.64h1.04c.31,0,.65.04,1.01.13.36.09.68.21.96.35v-1.04c0-.35-.11-.63-.33-.84-.22-.21-.51-.32-.87-.32h-1.41c-.37,0-.67.09-.89.26s-.33.4-.33.68h-1.88c0-.77.29-1.39.86-1.86.57-.47,1.32-.7,2.25-.7h1.41c.94,0,1.69.25,2.26.76.57.51.86,1.18.86,2.02v5.72h-1.79v-1.06c-.27.36-.6.65-1.01.86s-.8.33-1.19.33h-1.04c-.85,0-1.53-.22-2.05-.65ZM100.65,15.35c.45,0,.85-.13,1.21-.38.36-.25.61-.58.75-1v-.4c-.19-.16-.46-.28-.8-.38s-.71-.14-1.09-.14h-1.06c-.34,0-.61.08-.81.25-.21.17-.31.39-.31.65v.47c0,.28.11.5.32.67.21.17.49.25.84.25h.96Z"/>
    <path class="st0" d="M106.92,7.08c-.23-.23-.34-.52-.34-.88s.11-.65.34-.88c.23-.23.53-.34.91-.34s.69.11.92.34c.24.23.35.52.35.88s-.12.65-.35.88c-.23.23-.54.34-.92.34s-.68-.11-.91-.34ZM106.87,8.36h1.93v8.36h-1.93v-8.36Z"/>
  </g>
</svg>