<?xml version="1.0" encoding="UTF-8"?>
<svg id="Layer_1" xmlns="http://www.w3.org/2000/svg" version="1.1" viewBox="0 0 112.39 24">
  <!-- Generator: Adobe Illustrator 29.6.1, SVG Export Plug-In . SVG Version: 2.1.1 Build 9)  -->
  <defs>
    <style>
      .st0 {
        fill: #6466e9;
      }

      .st1 {
        fill: #fff;
        font-family: BaiJamjuree-Bold, 'Bai Jamjuree';
        font-size: 16.33px;
        font-weight: 700;
      }

      .st2 {
        fill: #f6fcfd;
      }
    </style>
  </defs>
  <path class="st0" d="M0,4.8C0,2.15,2.15,0,4.8,0h14.4C21.85,0,24,2.15,24,4.8v14.4c0,2.65-2.15,4.8-4.8,4.8H4.8c-2.65,0-4.8-2.15-4.8-4.8V4.8Z"/>
  <path class="st2" d="M8.4,17.4c0-1.33,1.07-2.4,2.4-2.4s2.4,1.07,2.4,2.4v1.6c0,1.33-1.07,2.4-2.4,2.4s-2.4-1.07-2.4-2.4v-1.6Z"/>
  <path class="st2" d="M16.2,17.4c0-1.33,1.07-2.4,2.4-2.4s2.4,1.07,2.4,2.4v1.6c0,1.33-1.07,2.4-2.4,2.4s-2.4-1.07-2.4-2.4v-1.6Z"/>
  <text class="st1" transform="translate(32.61 19.2)"><tspan x="0" y="0">minerva.ai</tspan></text>
</svg>