<svg width="130" height="24" viewBox="0 0 130 24" fill="none" xmlns="http://www.w3.org/2000/svg">
<path d="M0 4.8C0 2.14903 2.14903 0 4.8 0H19.2C21.851 0 24 2.14903 24 4.8V19.2C24 21.851 21.851 24 19.2 24H4.8C2.14903 24 0 21.851 0 19.2V4.8Z" fill="#6466E9"/>
<path d="M8.4 17.4C8.4 16.0745 9.47452 15 10.8 15C12.1255 15 13.2 16.0745 13.2 17.4V19C13.2 20.3255 12.1255 21.4 10.8 21.4C9.47452 21.4 8.4 20.3255 8.4 19V17.4Z" fill="#F6FCFD"/>
<path d="M16.2 17.4C16.2 16.0745 17.2745 15 18.6 15C19.9255 15 21 16.0745 21 17.4V19C21 20.3255 19.9255 21.4 18.6 21.4C17.2745 21.4 16.2 20.3255 16.2 19V17.4Z" fill="#F6FCFD"/>
<path d="M36.32 17.692C35.616 17.692 34.9973 17.58 34.464 17.356C33.9307 17.1213 33.504 16.8013 33.184 16.396C32.864 15.9907 32.672 15.5213 32.608 14.988H34.672C34.736 15.2973 34.9067 15.564 35.184 15.788C35.472 16.0013 35.84 16.108 36.288 16.108C36.736 16.108 37.0613 16.0173 37.264 15.836C37.4773 15.6547 37.584 15.4467 37.584 15.212C37.584 14.8707 37.4347 14.6413 37.136 14.524C36.8373 14.396 36.4213 14.2733 35.888 14.156C35.5467 14.0813 35.2 13.9907 34.848 13.884C34.496 13.7773 34.1707 13.644 33.872 13.484C33.584 13.3133 33.3493 13.1 33.168 12.844C32.9867 12.5773 32.896 12.252 32.896 11.868C32.896 11.164 33.1733 10.572 33.728 10.092C34.2933 9.612 35.0827 9.372 36.096 9.372C37.0347 9.372 37.7813 9.59067 38.336 10.028C38.9013 10.4653 39.2373 11.068 39.344 11.836H37.408C37.2907 11.2493 36.848 10.956 36.08 10.956C35.696 10.956 35.3973 11.0307 35.184 11.18C34.9813 11.3293 34.88 11.516 34.88 11.74C34.88 11.9747 35.0347 12.1613 35.344 12.3C35.6533 12.4387 36.064 12.5667 36.576 12.684C37.1307 12.812 37.6373 12.956 38.096 13.116C38.5653 13.2653 38.9387 13.4947 39.216 13.804C39.4933 14.1027 39.632 14.5347 39.632 15.1C39.6427 15.5907 39.5147 16.0333 39.248 16.428C38.9813 16.8227 38.5973 17.132 38.096 17.356C37.5947 17.58 37.0027 17.692 36.32 17.692ZM41.9903 8.332C41.6169 8.332 41.3076 8.22 41.0623 7.996C40.8276 7.772 40.7103 7.48933 40.7103 7.148C40.7103 6.80667 40.8276 6.52933 41.0623 6.316C41.3076 6.092 41.6169 5.98 41.9903 5.98C42.3636 5.98 42.6676 6.092 42.9023 6.316C43.1476 6.52933 43.2703 6.80667 43.2703 7.148C43.2703 7.48933 43.1476 7.772 42.9023 7.996C42.6676 8.22 42.3636 8.332 41.9903 8.332ZM40.9663 17.5V9.564H43.0143V17.5H40.9663ZM44.5919 17.5V9.564H46.3999L46.5759 10.636C46.8319 10.252 47.1679 9.948 47.5839 9.724C48.0105 9.48933 48.5012 9.372 49.0559 9.372C50.2825 9.372 51.1519 9.84667 51.6639 10.796C51.9519 10.3587 52.3359 10.012 52.8159 9.756C53.3065 9.5 53.8399 9.372 54.4159 9.372C55.4505 9.372 56.2452 9.68133 56.7999 10.3C57.3545 10.9187 57.6319 11.8253 57.6319 13.02V17.5H55.5839V13.212C55.5839 12.5293 55.4505 12.0067 55.1839 11.644C54.9279 11.2813 54.5279 11.1 53.9839 11.1C53.4292 11.1 52.9812 11.3027 52.6399 11.708C52.3092 12.1133 52.1439 12.6787 52.1439 13.404V17.5H50.0959V13.212C50.0959 12.5293 49.9625 12.0067 49.6959 11.644C49.4292 11.2813 49.0185 11.1 48.4639 11.1C47.9199 11.1 47.4772 11.3027 47.1359 11.708C46.8052 12.1133 46.6399 12.6787 46.6399 13.404V17.5H44.5919ZM59.0162 21.02V9.564H60.8402L61.0642 10.7C61.3202 10.348 61.6562 10.0387 62.0722 9.772C62.4989 9.50533 63.0482 9.372 63.7203 9.372C64.4669 9.372 65.1336 9.55333 65.7203 9.916C66.3069 10.2787 66.7709 10.7747 67.1123 11.404C67.4536 12.0333 67.6243 12.748 67.6243 13.548C67.6243 14.348 67.4536 15.0627 67.1123 15.692C66.7709 16.3107 66.3069 16.8013 65.7203 17.164C65.1336 17.516 64.4669 17.692 63.7203 17.692C63.1229 17.692 62.6002 17.58 62.1522 17.356C61.7042 17.132 61.3416 16.8173 61.0642 16.412V21.02H59.0162ZM63.2882 15.9C63.9389 15.9 64.4776 15.6813 64.9043 15.244C65.3309 14.8067 65.5443 14.2413 65.5443 13.548C65.5443 12.8547 65.3309 12.284 64.9043 11.836C64.4776 11.388 63.9389 11.164 63.2882 11.164C62.6269 11.164 62.0829 11.388 61.6562 11.836C61.2402 12.2733 61.0322 12.8387 61.0322 13.532C61.0322 14.2253 61.2402 14.796 61.6562 15.244C62.0829 15.6813 62.6269 15.9 63.2882 15.9ZM68.8937 17.5V5.98H70.9417V17.5H68.8937ZM76.3304 17.692C75.5304 17.692 74.821 17.5213 74.2024 17.18C73.5837 16.8387 73.0984 16.3587 72.7464 15.74C72.3944 15.1213 72.2184 14.4067 72.2184 13.596C72.2184 12.7747 72.389 12.044 72.7304 11.404C73.0824 10.764 73.5624 10.268 74.1704 9.916C74.789 9.55333 75.5144 9.372 76.3464 9.372C77.125 9.372 77.813 9.54267 78.4104 9.884C79.0077 10.2253 79.4717 10.6947 79.8024 11.292C80.1437 11.8787 80.3144 12.5347 80.3144 13.26C80.3144 13.3773 80.309 13.5 80.2984 13.628C80.2984 13.756 80.293 13.8893 80.2824 14.028H74.2504C74.293 14.6467 74.5064 15.132 74.8904 15.484C75.285 15.836 75.7597 16.012 76.3144 16.012C76.7304 16.012 77.077 15.9213 77.3544 15.74C77.6424 15.548 77.8557 15.3027 77.9944 15.004H80.0744C79.925 15.5053 79.6744 15.964 79.3224 16.38C78.981 16.7853 78.5544 17.1053 78.0424 17.34C77.541 17.5747 76.9704 17.692 76.3304 17.692ZM76.3464 11.036C75.845 11.036 75.4024 11.18 75.0184 11.468C74.6344 11.7453 74.389 12.172 74.2824 12.748H78.2344C78.2024 12.2253 78.0104 11.8093 77.6584 11.5C77.3064 11.1907 76.869 11.036 76.3464 11.036ZM85.3649 17.692C84.5542 17.692 83.8395 17.516 83.2209 17.164C82.6022 16.812 82.1115 16.3213 81.7489 15.692C81.3969 15.0627 81.2209 14.3427 81.2209 13.532C81.2209 12.7213 81.3969 12.0013 81.7489 11.372C82.1115 10.7427 82.6022 10.252 83.2209 9.9C83.8395 9.548 84.5542 9.372 85.3649 9.372C86.3782 9.372 87.2315 9.63867 87.9249 10.172C88.6182 10.6947 89.0609 11.42 89.2529 12.348H87.0929C86.9862 11.964 86.7729 11.6653 86.4529 11.452C86.1435 11.228 85.7755 11.116 85.3489 11.116C84.7835 11.116 84.3035 11.3293 83.9089 11.756C83.5142 12.1827 83.3169 12.7747 83.3169 13.532C83.3169 14.2893 83.5142 14.8813 83.9089 15.308C84.3035 15.7347 84.7835 15.948 85.3489 15.948C85.7755 15.948 86.1435 15.8413 86.4529 15.628C86.7729 15.4147 86.9862 15.1107 87.0929 14.716H89.2529C89.0609 15.612 88.6182 16.332 87.9249 16.876C87.2315 17.42 86.3782 17.692 85.3649 17.692ZM90.5106 17.5V5.98H92.5586V10.78C92.8253 10.3427 93.1826 10.0013 93.6306 9.756C94.0893 9.5 94.612 9.372 95.1986 9.372C96.18 9.372 96.9373 9.68133 97.4706 10.3C98.0146 10.9187 98.2866 11.8253 98.2866 13.02V17.5H96.2546V13.212C96.2546 12.5293 96.116 12.0067 95.8386 11.644C95.572 11.2813 95.1453 11.1 94.5586 11.1C93.9826 11.1 93.5026 11.3027 93.1186 11.708C92.7453 12.1133 92.5586 12.6787 92.5586 13.404V17.5H90.5106ZM102.421 17.692C101.738 17.692 101.178 17.5853 100.741 17.372C100.304 17.148 99.9783 16.8547 99.765 16.492C99.5517 16.1293 99.445 15.7293 99.445 15.292C99.445 14.556 99.733 13.9587 100.309 13.5C100.885 13.0413 101.749 12.812 102.901 12.812H104.917V12.62C104.917 12.076 104.762 11.676 104.453 11.42C104.144 11.164 103.76 11.036 103.301 11.036C102.885 11.036 102.522 11.1373 102.213 11.34C101.904 11.532 101.712 11.82 101.637 12.204H99.637C99.6903 11.628 99.8823 11.1267 100.213 10.7C100.554 10.2733 100.992 9.948 101.525 9.724C102.058 9.48933 102.656 9.372 103.317 9.372C104.448 9.372 105.338 9.65467 105.989 10.22C106.64 10.7853 106.965 11.5853 106.965 12.62V17.5H105.221L105.029 16.22C104.794 16.6467 104.464 16.9987 104.037 17.276C103.621 17.5533 103.082 17.692 102.421 17.692ZM102.885 16.092C103.472 16.092 103.925 15.9 104.245 15.516C104.576 15.132 104.784 14.6573 104.869 14.092H103.125C102.581 14.092 102.192 14.1933 101.957 14.396C101.722 14.588 101.605 14.828 101.605 15.116C101.605 15.4253 101.722 15.6653 101.957 15.836C102.192 16.0067 102.501 16.092 102.885 16.092ZM111.786 17.5C110.954 17.5 110.287 17.2973 109.786 16.892C109.285 16.4867 109.034 15.7667 109.034 14.732V11.276H107.674V9.564H109.034L109.274 7.436H111.082V9.564H113.226V11.276H111.082V14.748C111.082 15.132 111.162 15.3987 111.322 15.548C111.493 15.6867 111.781 15.756 112.186 15.756H113.178V17.5H111.786ZM115.304 17.612C114.931 17.612 114.622 17.4947 114.376 17.26C114.142 17.0253 114.024 16.7427 114.024 16.412C114.024 16.0707 114.142 15.7827 114.376 15.548C114.622 15.3133 114.931 15.196 115.304 15.196C115.678 15.196 115.982 15.3133 116.216 15.548C116.462 15.7827 116.584 16.0707 116.584 16.412C116.584 16.7427 116.462 17.0253 116.216 17.26C115.982 17.4947 115.678 17.612 115.304 17.612ZM120.444 17.692C119.761 17.692 119.201 17.5853 118.764 17.372C118.327 17.148 118.001 16.8547 117.788 16.492C117.575 16.1293 117.468 15.7293 117.468 15.292C117.468 14.556 117.756 13.9587 118.332 13.5C118.908 13.0413 119.772 12.812 120.924 12.812H122.94V12.62C122.94 12.076 122.785 11.676 122.476 11.42C122.167 11.164 121.783 11.036 121.324 11.036C120.908 11.036 120.545 11.1373 120.236 11.34C119.927 11.532 119.735 11.82 119.66 12.204H117.66C117.713 11.628 117.905 11.1267 118.236 10.7C118.577 10.2733 119.015 9.948 119.548 9.724C120.081 9.48933 120.679 9.372 121.34 9.372C122.471 9.372 123.361 9.65467 124.012 10.22C124.663 10.7853 124.988 11.5853 124.988 12.62V17.5H123.244L123.052 16.22C122.817 16.6467 122.487 16.9987 122.06 17.276C121.644 17.5533 121.105 17.692 120.444 17.692ZM120.908 16.092C121.495 16.092 121.948 15.9 122.268 15.516C122.599 15.132 122.807 14.6573 122.892 14.092H121.148C120.604 14.092 120.215 14.1933 119.98 14.396C119.745 14.588 119.628 14.828 119.628 15.116C119.628 15.4253 119.745 15.6653 119.98 15.836C120.215 16.0067 120.524 16.092 120.908 16.092ZM127.486 8.332C127.113 8.332 126.804 8.22 126.558 7.996C126.324 7.772 126.206 7.48933 126.206 7.148C126.206 6.80667 126.324 6.52933 126.558 6.316C126.804 6.092 127.113 5.98 127.486 5.98C127.86 5.98 128.164 6.092 128.398 6.316C128.644 6.52933 128.766 6.80667 128.766 7.148C128.766 7.48933 128.644 7.772 128.398 7.996C128.164 8.22 127.86 8.332 127.486 8.332ZM126.462 17.5V9.564H128.51V17.5H126.462Z" fill="#F6FCFD"/>
</svg>
