<?xml version="1.0" encoding="UTF-8"?>
<svg id="Layer_1" xmlns="http://www.w3.org/2000/svg" version="1.1" viewBox="0 0 112.39 22.3">
  <!-- Generator: Adobe Illustrator 29.6.1, SVG Export Plug-In . SVG Version: 2.1.1 Build 9)  -->
  <defs>
    <style>
      .st0 {
        font-family: BaiJamjuree-SemiBold, 'Bai Jamjuree';
        font-size: 16.76px;
        font-weight: 600;
      }

      .st0, .st1 {
        fill: #6185f6;
      }
    </style>
  </defs>
  <g>
    <path class="st1" d="M1.92.29c.05-.01.11-.01.16,0l5.39,3.04c.68-.28,1.36-.57,2.08-.75,2.48-.61,5.15-.35,7.45.74.57-.27,1.11-.59,1.66-.89,1.11-.62,2.23-1.37,3.34-1.95.29-.15.76-.41.82.14.17,1.51-.35,3.42-.81,4.85-.09.28-.4.92-.38,1.17.01.16.43.61.54.78,2.46,3.67,1.99,8.85-1.77,11.44-1.73,1.19-4.89,2.27-6.94,2.87-.57.16-.99.37-1.59.24-1.91-.42-5.5-1.77-7.19-2.75C.31,16.67-.3,11.29,2.44,7.25c.1-.15.44-.5.44-.65-.4-1.11-.8-2.23-1.02-3.4-.14-.71-.26-1.62-.24-2.34,0-.21.05-.53.29-.58ZM12.11,11.91c-.74-1.55-1.53-3.29-3.07-4.21-2.65-1.57-5.45.09-6.22,2.85-1.16,4.13,2.47,8.12,6.64,6.36.76.75,1.5,1.66,2.3,2.35.16.14.4.39.62.29l2.64-2.61c.16-.05.39.11.55.16,4.45,1.28,7.58-3.34,5.84-7.3-1.03-2.35-3.67-3.49-5.97-2.1-1.54.93-2.32,2.64-3.07,4.21h-.26Z"/>
    <path class="st1" d="M16.56,9.51c3.29-.45,3.73,4.72.67,5.05s-3.63-4.65-.67-5.05ZM16.37,10.89c-.88,0-.8,1.43.09,1.35.74-.07.74-1.35-.09-1.35Z"/>
    <path class="st1" d="M7.21,9.51c3.27-.44,3.69,4.69.67,5.05-3.26.38-3.64-4.64-.67-5.05ZM8.58,11.07c-.54-.54-1.43.19-.96.89.55.82,1.62-.24.96-.89Z"/>
    <path class="st1" d="M12.12,17.92c-.14-.12-.61-.96-.72-1.17-.09-.17-.66-1.35-.65-1.43l1.51-1.99,1.49,2.03c-.33.72-.64,1.45-1.07,2.12-.08.13-.27.48-.41.49-.05,0-.1-.01-.14-.05Z"/>
  </g>
  <text class="st0" transform="translate(29.36 16.73)"><tspan x="0" y="0">minerva.ai</tspan></text>
</svg>