<?xml version="1.0" encoding="UTF-8"?>
<svg id="Layer_1" xmlns="http://www.w3.org/2000/svg" version="1.1" viewBox="0 0 102.51 17.78">
  <!-- Generator: Adobe Illustrator 29.6.1, SVG Export Plug-In . SVG Version: 2.1.1 Build 9)  -->
  <defs>
    <style>
      .st0 {
        fill: #6185f6;
      }
    </style>
  </defs>
  <g>
    <path class="st0" d="M.86,1.24s.08-.01.12,0l4.11,2.32c.52-.22,1.03-.44,1.58-.57,1.89-.46,3.92-.27,5.67.56.43-.2.85-.45,1.26-.68.84-.47,1.7-1.04,2.55-1.48.22-.12.58-.31.63.1.13,1.15-.27,2.6-.62,3.69-.07.22-.31.7-.29.89.01.12.32.46.41.6,1.87,2.8,1.52,6.74-1.35,8.71-1.32.91-3.72,1.73-5.28,2.18-.43.13-.75.28-1.21.18-1.46-.32-4.19-1.34-5.47-2.09C-.37,13.71-.83,9.62,1.26,6.54c.08-.11.34-.38.34-.49-.31-.85-.61-1.7-.78-2.59-.1-.54-.2-1.23-.18-1.78,0-.16.04-.4.22-.44ZM8.62,10.08c-.56-1.18-1.16-2.51-2.33-3.2-2.01-1.2-4.15.07-4.74,2.17-.88,3.14,1.88,6.18,5.05,4.84.58.57,1.14,1.26,1.75,1.79.12.11.3.3.47.22l2.01-1.99c.12-.04.29.09.42.12,3.38.98,5.77-2.54,4.45-5.56-.78-1.78-2.79-2.66-4.54-1.6-1.17.71-1.77,2.01-2.33,3.2h-.2Z"/>
    <path class="st0" d="M12.01,8.26c2.51-.34,2.84,3.59.51,3.84s-2.77-3.54-.51-3.84ZM11.86,9.31c-.67,0-.61,1.08.07,1.02.57-.05.57-1.03-.07-1.02Z"/>
    <path class="st0" d="M4.89,8.26c2.49-.34,2.81,3.57.51,3.84-2.48.29-2.77-3.54-.51-3.84ZM5.93,9.44c-.41-.41-1.09.14-.73.68.42.62,1.23-.18.73-.68Z"/>
    <path class="st0" d="M8.63,14.66c-.11-.09-.46-.73-.55-.89-.07-.13-.5-1.03-.5-1.09l1.15-1.51,1.13,1.54c-.25.54-.49,1.11-.82,1.61-.06.1-.21.36-.32.38-.04,0-.07-.01-.11-.04Z"/>
  </g>
  <g>
    <path class="st0" d="M34.44,6.97c.49.53.73,1.23.73,2.11v5.6h-1.93v-5.62c0-.37-.08-.66-.25-.88-.17-.22-.39-.33-.67-.33h-.8c-.37,0-.68.13-.94.39-.26.26-.42.62-.5,1.06v5.36h-1.91v-5.56c0-.38-.08-.68-.25-.91-.17-.23-.39-.34-.67-.34h-.75c-.37,0-.69.17-.96.49s-.45.76-.53,1.28v5.05h-1.93V6.32h1.79v1.06c.21-.37.48-.66.8-.87.32-.21.65-.32.99-.32h.96c.42,0,.8.11,1.14.33s.6.52.79.91c.25-.39.54-.7.89-.91.35-.22.72-.33,1.11-.33h.96c.82,0,1.47.26,1.95.79Z"/>
    <path class="st0" d="M37.56,5.03c-.23-.23-.34-.52-.34-.88s.11-.65.34-.88.53-.34.91-.34.69.11.92.34c.23.23.35.52.35.88s-.12.65-.35.88c-.23.23-.54.34-.92.34s-.68-.11-.91-.34ZM37.51,6.32h1.93v8.36h-1.93V6.32Z"/>
    <path class="st0" d="M41.89,6.32h1.79v1.09c.25-.37.57-.67.97-.89.4-.22.8-.34,1.21-.34h1.04c.86,0,1.55.27,2.07.82.52.55.78,1.27.78,2.16v5.51h-1.93v-5.46c0-.4-.1-.73-.31-.98-.21-.25-.48-.38-.81-.38h-1.04c-.44,0-.83.17-1.17.49-.35.33-.57.75-.67,1.27v5.06h-1.93V6.32Z"/>
    <path class="st0" d="M53.1,14.43c-.52-.26-.92-.62-1.21-1.09s-.43-1.01-.43-1.63v-2.25c0-.65.14-1.22.43-1.72.29-.5.69-.88,1.21-1.16s1.12-.41,1.8-.41h1.34c1.02,0,1.83.3,2.45.89.61.59.92,1.38.92,2.36v1.68h-6.22v.6c0,.45.14.8.41,1.07.27.27.64.4,1.1.4h1.29c.45,0,.81-.11,1.08-.33.27-.22.41-.51.41-.86h1.9c0,.85-.31,1.53-.94,2.04s-1.45.77-2.46.77h-1.27c-.68,0-1.28-.13-1.8-.39ZM57.71,9.67v-.23c0-.49-.13-.89-.4-1.19-.27-.3-.62-.45-1.06-.45h-1.36c-.46,0-.83.16-1.11.48-.29.32-.43.73-.43,1.25v.15h4.36Z"/>
    <path class="st0" d="M61.34,6.32h1.79v1.14c.22-.35.54-.63.96-.85.42-.22.85-.33,1.3-.33h1.01v1.68h-1.01c-.64,0-1.15.2-1.54.59-.39.39-.59.9-.59,1.53v4.61h-1.93V6.32Z"/>
    <path class="st0" d="M69.82,13.67l-2.88-7.36h2.03l2.18,6.19h.02l2.2-6.19h2.03l-3.34,8.36h-.97c-.58,0-1-.33-1.26-1.01Z"/>
    <path class="st0" d="M76.73,14.17c-.52-.43-.78-1-.78-1.72v-.6c0-.7.27-1.27.81-1.69.54-.42,1.25-.64,2.14-.64h1.04c.31,0,.65.04,1.01.13.36.09.68.21.96.35v-1.04c0-.35-.11-.63-.33-.84-.22-.21-.51-.32-.87-.32h-1.41c-.37,0-.67.09-.89.26s-.33.4-.33.68h-1.88c0-.77.29-1.39.86-1.86.57-.47,1.32-.7,2.25-.7h1.41c.94,0,1.69.25,2.26.76.57.51.86,1.18.86,2.02v5.72h-1.79v-1.06c-.27.36-.6.65-1.01.86s-.8.33-1.19.33h-1.04c-.85,0-1.53-.22-2.05-.65ZM79.94,13.31c.45,0,.85-.13,1.21-.38.36-.25.61-.58.75-1v-.4c-.19-.16-.46-.28-.8-.38s-.71-.14-1.09-.14h-1.06c-.34,0-.61.08-.81.25-.21.17-.31.39-.31.65v.47c0,.28.11.5.32.67.21.17.49.25.84.25h.96Z"/>
    <path class="st0" d="M85.86,14.51c-.22-.22-.34-.52-.34-.89s.11-.65.34-.87c.22-.22.52-.33.89-.33s.65.11.87.33.33.51.33.87-.11.67-.33.89c-.22.22-.51.33-.87.33s-.67-.11-.89-.33Z"/>
    <path class="st0" d="M90.08,14.17c-.52-.43-.78-1-.78-1.72v-.6c0-.7.27-1.27.81-1.69.54-.42,1.25-.64,2.14-.64h1.04c.31,0,.65.04,1.01.13.36.09.68.21.96.35v-1.04c0-.35-.11-.63-.33-.84-.22-.21-.51-.32-.87-.32h-1.41c-.37,0-.67.09-.89.26s-.33.4-.33.68h-1.88c0-.77.29-1.39.86-1.86.57-.47,1.32-.7,2.25-.7h1.41c.94,0,1.69.25,2.26.76.57.51.86,1.18.86,2.02v5.72h-1.79v-1.06c-.27.36-.6.65-1.01.86s-.8.33-1.19.33h-1.04c-.85,0-1.53-.22-2.05-.65ZM93.29,13.31c.45,0,.85-.13,1.21-.38.36-.25.61-.58.75-1v-.4c-.19-.16-.46-.28-.8-.38s-.71-.14-1.09-.14h-1.06c-.34,0-.61.08-.81.25-.21.17-.31.39-.31.65v.47c0,.28.11.5.32.67.21.17.49.25.84.25h.96Z"/>
    <path class="st0" d="M99.55,5.03c-.23-.23-.34-.52-.34-.88s.11-.65.34-.88c.23-.23.53-.34.91-.34s.69.11.92.34c.24.23.35.52.35.88s-.12.65-.35.88c-.23.23-.54.34-.92.34s-.68-.11-.91-.34ZM99.51,6.32h1.93v8.36h-1.93V6.32Z"/>
  </g>
</svg>