<?xml version="1.0" encoding="UTF-8"?>
<svg id="Layer_1" xmlns="http://www.w3.org/2000/svg" version="1.1" viewBox="0 0 24 24">
  <!-- Generator: Adobe Illustrator 29.6.1, SVG Export Plug-In . SVG Version: 2.1.1 Build 9)  -->
  <defs>
    <style>
      .st0 {
        fill: #6185f6;
      }
    </style>
  </defs>
  <path class="st0" d="M23.72,9.57h-2.53c-2.16-3.93-7.73-2.74-8.03,1.82-.07,1.01.43,3.09-1.22,3-1.61-.09-1.05-2.23-1.14-3.29-.43-5.28-8.7-5.46-8.43,1.14.37,9.18,12.07,12.78,17.41,5.34.72-1,1.13-2.02,1.55-3.16h2.39c-1.66,8.15-11.11,12.23-18.2,7.67C-1.58,17.54-1.89,7.29,4.92,2.3c7.03-5.16,17.11-1.19,18.8,7.27ZM18.36,4.86c-3.43-3.23-9.31-3.29-12.71,0,2.43-.35,4.9.74,6.32,2.71,1.49-1.99,3.9-3.07,6.39-2.71Z"/>
  <path class="st0" d="M6.5,9.59c2.38-.13,2.54,3.58.12,3.63s-2.43-3.51-.12-3.63Z"/>
  <path class="st0" d="M17.28,9.59c2.41-.13,2.52,3.58.12,3.63-2.26.05-2.46-3.51-.12-3.63Z"/>
</svg>